<svg width="108" height="108" viewBox="0 0 108 108" fill="none" xmlns="http://www.w3.org/2000/svg">
<path d="M58.5 50.5H59.5V49.5V38.0806L79.3992 54L59.5 69.9194V58.5V57.5H58.5H19V50.5H58.5Z" stroke="#FF9500" stroke-width="2"/>
<path d="M49.5 21.5H48.5V22.5V39.5H41.5V22.5C41.5 18.0888 45.0888 14.5 49.5 14.5H90C94.4112 14.5 98 18.0888 98 22.5V85.5C98 89.9112 94.4112 93.5 90 93.5H49.5C45.0888 93.5 41.5 89.9112 41.5 85.5V68.5H48.5V85.5V86.5H49.5H90H91V85.5V22.5V21.5H90H49.5Z" stroke="#FF9500" stroke-width="2"/>
</svg>
