<svg width="108" height="108" viewBox="0 0 108 108" fill="none" xmlns="http://www.w3.org/2000/svg">
<path d="M77.5 49.5V50.5H76.5H37V57.5H76.5H77.5V58.5V69.9194L97.3992 54L77.5 38.0806V49.5Z" stroke="#FF9500" stroke-width="2"/>
<path d="M58.5 21.5H59.5V22.5V39.5H66.5V22.5C66.5 18.0888 62.9112 14.5 58.5 14.5H18C13.5888 14.5 10 18.0888 10 22.5V85.5C10 89.9112 13.5888 93.5 18 93.5H58.5C62.9112 93.5 66.5 89.9112 66.5 85.5V68.5H59.5V85.5V86.5H58.5H18H17V85.5V22.5V21.5H18H58.5Z" stroke="#FF9500" stroke-width="2"/>
</svg>
