<svg width="108" height="108" viewBox="0 0 108 108" fill="none" xmlns="http://www.w3.org/2000/svg">
<path d="M39.3441 80.2929L39.0512 80H38.637H22.5C18.0888 80 14.5 76.4112 14.5 72V18C14.5 13.5888 18.0888 10 22.5 10H85.5C89.9112 10 93.5 13.5888 93.5 18V72C93.5 76.4112 89.9112 80 85.5 80H69.363H68.9488L68.6559 80.2929L54 94.9488L39.3441 80.2929ZM22.5 17H21.5V18V72V73H22.5H41.9488L53.2929 84.3441L54 85.0512L54.7071 84.3441L66.0512 73H85.5H86.5V72V18V17H85.5H22.5Z" stroke="#FF9500" stroke-width="2"/>
<path d="M34.759 61.9416V55.2608L56.1547 33.8994L62.8321 40.5805L41.4451 61.9416H34.759ZM61.3902 28.6646L66.1413 23.9101L72.8268 30.5956L68.0758 35.3466L61.3902 28.6646Z" stroke="#FF9500" stroke-width="2"/>
</svg>
